<?xml version="1.0" standalone="no"?>
<!DOCTYPE svg PUBLIC "-//W3C//DTD SVG 20010904//EN"
 "http://www.w3.org/TR/2001/REC-SVG-20010904/DTD/svg10.dtd">
<svg version="1.0" xmlns="http://www.w3.org/2000/svg"
 width="260.000000pt" height="260.000000pt" viewBox="0 0 260.000000 260.000000"
 preserveAspectRatio="xMidYMid meet">
<metadata>
Created by potrace 1.14, written by Peter Selinger 2001-2017
</metadata>
<g transform="translate(0.000000,260.000000) scale(0.100000,-0.100000)"
fill="#000000" stroke="none">
<path d="M0 1300 l0 -1300 1300 0 1300 0 0 800 c0 440 -4 800 -8 800 -5 0 -28
-16 -53 -36 -37 -30 -36 -28 9 13 l52 50 0 486 0 487 -1300 0 -1300 0 0 -1300z
m1360 496 l0 -73 72 -6 c196 -17 350 -173 365 -369 18 -232 -127 -416 -351
-447 -38 -6 -73 -16 -77 -23 -5 -7 -9 -37 -9 -65 l0 -53 -65 0 -65 0 0 70 0
70 -55 0 c-94 0 -218 58 -280 132 -16 18 -42 62 -59 98 -39 83 -48 212 -21
303 46 158 182 268 352 284 l63 6 0 67 c0 37 3 70 7 73 3 4 33 7 65 7 l58 0 0
-74z m506 -744 c-15 -29 -56 -66 -64 -58 -7 8 28 65 50 80 29 21 33 14 14 -22z
m-966 -241 c-1 -10 -6 -7 -15 9 -19 33 -18 50 0 26 8 -11 15 -27 15 -35z
m-828 -18 c22 -27 30 -43 20 -43 -4 0 -18 14 -30 30 -24 32 -15 42 10 13z
m554 -158 c-11 -8 -25 -15 -30 -15 -6 1 0 7 14 15 32 19 40 18 16 0z m-98 -2
c-10 -2 -26 -2 -35 0 -10 3 -2 5 17 5 19 0 27 -2 18 -5z m-90 -10 c-10 -2 -28
-2 -40 0 -13 2 -5 4 17 4 22 1 32 -1 23 -4z m1152 -553 c0 -5 -5 -10 -11 -10
-5 0 -7 5 -4 10 3 6 8 10 11 10 2 0 4 -4 4 -10z"/>
<path d="M1085 1586 c-49 -23 -84 -55 -118 -106 -24 -35 -21 -50 9 -50 14 0
23 -4 20 -9 -3 -4 -17 -6 -30 -4 -22 5 -25 1 -32 -42 -11 -74 3 -173 31 -231
39 -80 108 -125 213 -139 l52 -7 0 306 0 306 -47 0 c-29 0 -67 -9 -98 -24z"/>
<path d="M1362 1308 l3 -303 52 3 c100 5 183 62 224 155 19 42 23 69 23 147 1
105 -20 168 -72 224 -41 43 -118 76 -180 76 l-53 0 3 -302z"/>
</g>
</svg>
