<svg width="98" height="100" viewBox="0 0 98 100" fill="none" xmlns="http://www.w3.org/2000/svg">
<path d="M97.3514 61.3618C97.3492 61.3394 97.3451 61.3179 97.3417 61.2961C97.339 61.2789 97.3372 61.2616 97.3339 61.2447C97.3289 61.2195 97.322 61.1951 97.3154 61.1705C97.3118 61.1567 97.3089 61.1429 97.3047 61.1299C97.298 61.1075 97.2894 61.086 97.2815 61.0642C97.2758 61.0486 97.2707 61.0327 97.2644 61.0173C97.2581 61.0018 97.2476 60.9813 97.239 60.9634C97.2305 60.9455 97.2224 60.9266 97.2128 60.9089C97.2051 60.8945 97.1961 60.8807 97.1878 60.8667C97.1758 60.8463 97.1644 60.826 97.1512 60.8057C97.1433 60.7939 97.1343 60.7829 97.126 60.7713C97.1112 60.751 97.0965 60.7307 97.0803 60.7104C97.0689 60.6965 97.0563 60.6839 97.0443 60.6707C97.0323 60.6575 97.0161 60.638 97.0006 60.6226C96.9722 60.5941 96.9423 60.5673 96.9112 60.5413L96.9093 60.5396L78.2841 45.3364C79.0388 45.0812 79.7291 44.6652 80.3073 44.1172C80.8856 43.5692 81.338 42.9023 81.6333 42.1624C81.7543 41.8623 81.7512 41.5263 81.6245 41.2285C81.4979 40.9307 81.2581 40.6954 80.9579 40.5744C80.6578 40.4534 80.3219 40.4565 80.024 40.5832C79.7262 40.7099 79.4909 40.9496 79.3699 41.2498C79.1428 41.8224 78.7488 42.3134 78.239 42.6592C77.7293 43.0051 77.1274 43.1896 76.5114 43.189C75.6861 43.189 74.8946 42.8612 74.311 42.2776C73.7274 41.694 73.3996 40.9025 73.3996 40.0772C73.3996 39.2519 73.7274 38.4604 74.311 37.8769C74.8946 37.2933 75.6861 36.9654 76.5114 36.9654C76.8348 36.9654 77.145 36.837 77.3737 36.6083C77.6024 36.3796 77.7309 36.0694 77.7309 35.7459V26.4228H82.6557C82.9791 26.4228 83.2893 26.2943 83.518 26.0656C83.7467 25.8369 83.8752 25.5267 83.8752 25.2033V20.378H86.4362C86.5968 20.378 86.7558 20.3463 86.904 20.2847C87.0523 20.2231 87.187 20.1328 87.3003 20.0191C87.4136 19.9053 87.5033 19.7702 87.5643 19.6217C87.6253 19.4732 87.6564 19.314 87.6557 19.1535L87.6211 10.7774C87.6196 10.4868 87.5143 10.2063 87.3242 9.98646C87.1342 9.7666 86.8719 9.62184 86.5846 9.57825V9.57703L23.924 0.0140245V0.0152439C23.8635 0.00565921 23.8023 0.000564049 23.7411 5.30849e-08H10.1301C9.96274 -4.94192e-05 9.79719 0.0344808 9.64382 0.101425C9.49045 0.168369 9.35257 0.266283 9.23882 0.389024L0.327238 9.95102C0.116395 10.1765 -0.000620316 10.4738 2.47327e-06 10.7825V19.1585C2.47327e-06 19.482 0.128486 19.7922 0.357189 20.0209C0.585892 20.2496 0.89608 20.378 1.21951 20.378H8.91667L8.91057 91.1707C7.02696 91.3646 5.28208 92.2498 4.01319 93.6554C2.74431 95.0609 2.04152 96.8869 2.04065 98.7805C2.04065 99.1039 2.16914 99.4141 2.39784 99.6428C2.62654 99.8715 2.93673 100 3.26017 100H30.4533C30.7767 100 31.0869 99.8715 31.3156 99.6428C31.5443 99.4141 31.6728 99.1039 31.6728 98.7805C31.6703 96.915 30.9871 95.1146 29.7515 93.7171C28.5158 92.3195 26.8127 91.4209 24.9616 91.1898L24.9734 20.378H68.9024V25.2033C68.9024 25.5267 69.0309 25.8369 69.2596 26.0656C69.4883 26.2943 69.7985 26.4228 70.1219 26.4228H75.2927V34.6626C74.1518 34.9262 73.1233 35.5433 72.3539 36.426C71.5844 37.3087 71.1135 38.4118 71.0081 39.578C70.9027 40.7442 71.1684 41.9139 71.7671 42.9201C72.3658 43.9264 73.2671 44.7179 74.3423 45.1817L55.5297 60.539L55.5276 60.5409C55.497 60.5658 55.4677 60.5924 55.4398 60.6203C55.4228 60.6372 55.4075 60.6553 55.3917 60.673C55.3809 60.6852 55.3693 60.6965 55.3589 60.7094C55.3423 60.7297 55.3274 60.75 55.3122 60.7715C55.3043 60.7827 55.2955 60.7933 55.2878 60.8047C55.2746 60.825 55.263 60.8453 55.251 60.8657C55.2427 60.8797 55.2339 60.8931 55.2262 60.9075C55.2167 60.9252 55.2085 60.9437 55.2 60.962C55.1915 60.9803 55.1823 60.9976 55.1746 61.0159C55.1669 61.0341 55.1632 61.0471 55.1575 61.0628C55.1496 61.0845 55.1411 61.1061 55.1343 61.1285C55.1301 61.1423 55.1272 61.1565 55.1236 61.1705C55.1171 61.1947 55.1102 61.2189 55.1053 61.2439C55.1016 61.2618 55.0998 61.2799 55.097 61.2978C55.0937 61.3181 55.0896 61.3396 55.0876 61.3612C55.0835 61.4012 55.0815 61.4413 55.0815 61.4815V81.1992C55.0815 81.5226 55.21 81.8328 55.4387 82.0615C55.6674 82.2902 55.9776 82.4187 56.301 82.4187H96.1384C96.4619 82.4187 96.772 82.2902 97.0007 82.0615C97.2294 81.8328 97.3579 81.5226 97.3579 81.1992V61.4813C97.3578 61.4414 97.3556 61.4015 97.3514 61.3618ZM70.3287 9.56301H24.9685L24.9626 2.63943L70.3287 9.56301ZM22.5295 9.56301H13.9679L22.5248 3.5628L22.5295 9.56301ZM11.3467 2.43902H19.8781L11.3327 8.43191L11.3467 2.43902ZM8.90244 4.325L8.89025 9.56301H4.02277L8.90244 4.325ZM29.0896 97.561H4.62256C4.89778 96.4238 5.54707 95.4121 6.46622 94.6882C7.38536 93.9643 8.52107 93.5702 9.69106 93.5691H24.0224C25.1921 93.5706 26.3274 93.9649 27.2463 94.6888C28.1652 95.4126 28.8143 96.4241 29.0896 97.561ZM20.9811 29.3293L11.3545 33.7602V24.901L20.9811 29.3293ZM11.3555 22.2154V20.378H22.5344L22.5331 27.3585L11.3555 22.2154ZM22.5325 31.3008L22.5309 40.5378L12.4943 35.9209L22.5325 31.3008ZM20.9177 42.4797L11.3535 46.8793V38.0805L20.9177 42.4797ZM22.5303 44.4228L22.5289 53.261L12.9256 48.8415L22.5303 44.4228ZM20.8862 55.19L11.3522 59.5776V50.8026L20.8862 55.19ZM22.5283 57.1193L22.5266 66.2163L12.6451 61.6667L22.5283 57.1193ZM20.9465 68.1738L11.3512 72.5907V63.7573L20.9465 68.1738ZM22.526 70.1317L22.5246 79.3915L12.4636 74.7632L22.526 70.1317ZM20.888 81.3232L11.3502 85.7114V76.9348L20.888 81.3232ZM22.524 83.2555L22.5226 91.1301H11.3496V88.3978L22.524 83.2555ZM71.3415 23.9837V20.378H73.7805C74.1039 20.378 74.4141 20.2496 74.6428 20.0209C74.8715 19.7922 75 19.482 75 19.1585C75 18.8351 74.8715 18.5249 74.6428 18.2962C74.4141 18.0675 74.1039 17.939 73.7805 17.939H2.43903V12.002H85.188L85.2124 17.939H78.252C77.9286 17.939 77.6184 18.0675 77.3897 18.2962C77.161 18.5249 77.0325 18.8351 77.0325 19.1585C77.0325 19.482 77.161 19.7922 77.3897 20.0209C77.6184 20.2496 77.9286 20.378 78.252 20.378H81.437V23.9837H71.3415ZM76.2195 46.7978L92.7159 60.2642H59.7232L76.2195 46.7978ZM94.9187 79.9797H57.5203V62.7033H94.9187V79.9797Z" fill="white"/>
</svg>
