<svg width="289" height="99" viewBox="0 0 289 99" fill="none" xmlns="http://www.w3.org/2000/svg">
<path fill-rule="evenodd" clip-rule="evenodd" d="M123.478 61.8073V42.2317C123.478 37.3198 123.932 33.2932 124.849 30.1321C125.756 26.981 127.427 24.5509 129.848 22.8416C132.281 21.1422 135.704 20.2878 140.105 20.2878C142.126 20.2878 143.93 20.5554 145.538 21.0908C147.136 21.6161 148.497 22.3572 149.599 23.2946C150.713 24.2317 151.558 25.3025 152.125 26.497C152.692 27.7019 152.981 28.948 152.981 30.2452C152.981 33.2932 152.011 35.5281 150.084 36.9184C148.156 38.319 145.899 39.0192 143.322 39.0192C141.549 39.0192 139.673 38.3599 137.704 37.0316L134.982 40.44C136.436 41.6037 137.838 42.5408 139.198 43.2306C140.559 43.9309 141.961 44.4457 143.394 44.7649C144.827 45.0841 146.373 45.2487 148.043 45.2487H148.6C149.888 45.2487 150.847 45.3929 151.476 45.6918C152.104 45.9904 152.517 46.4333 152.703 47.0305C152.888 47.6379 152.981 48.4824 152.981 49.5741V59.3978C152.981 59.6143 152.97 59.8508 152.95 60.0876C152.929 60.3351 152.919 60.6543 152.919 61.0661C152.898 61.9106 152.816 62.5491 152.661 62.9815C152.517 63.4139 152.104 63.7641 151.445 64.0216C150.775 64.2787 149.682 64.4026 148.167 64.4026H118.345V61.8073H123.478ZM133.065 61.8073H140.662C141.693 61.8073 142.404 61.5499 142.796 61.0249C143.198 60.4997 143.394 59.3873 143.394 57.678V50.6963C143.394 49.7697 143.25 49.0898 142.972 48.6678C142.693 48.2453 141.941 47.7102 140.724 47.0407C138.559 45.8567 136.992 44.9399 136.013 44.2811C135.044 43.6322 134.065 42.7364 133.065 41.6139V61.8073ZM133.065 39.4412L136.642 34.5603C137.91 35.3014 138.869 35.6723 139.497 35.6723C140.374 35.6723 141.24 35.1882 142.106 34.21C142.961 33.232 143.394 31.5944 143.394 29.2771C143.394 27.0841 142.93 25.4671 142.002 24.4377C141.075 23.3976 139.91 22.8825 138.497 22.8825C136.312 22.8825 134.869 24.0053 134.158 26.2602C133.436 28.5156 133.054 31.5123 132.993 35.2501C132.993 35.7956 133.003 36.4753 133.023 37.289C133.054 38.1025 133.065 38.823 133.065 39.4412ZM185.39 38.4629L187.009 40.3782C184.782 41.8196 182.865 42.5408 181.247 42.5408C179.525 42.5408 177.742 41.4697 175.876 39.328C175.175 38.5348 174.608 37.9478 174.195 37.5772C173.773 37.2171 173.257 37.0316 172.66 37.0316C170.752 37.0316 169.505 38.2365 168.917 40.6461C168.32 43.0658 167.979 46.0833 167.886 49.6978C168.876 48.9357 170.227 48.153 171.948 47.3703C173.67 46.5775 175.061 46.186 176.113 46.186C176.907 46.186 177.649 46.3097 178.339 46.5465C179.133 46.8349 179.947 47.2363 180.772 47.7511C181.607 48.2662 182.215 48.5236 182.607 48.5236C183.452 48.5236 184.236 48.1939 184.968 47.545L186.205 49.2036C185.184 50.367 184.05 51.4172 182.793 52.3543C182.123 52.8485 181.597 53.1988 181.195 53.4045C180.803 53.6105 180.257 53.7133 179.576 53.7133C178.68 53.7133 177.711 53.3633 176.68 52.6633C175.628 51.9526 174.793 51.4584 174.165 51.1807C173.546 50.8919 172.855 50.7582 172.103 50.7582C170.69 50.7582 169.309 51.3557 167.948 52.5499C167.948 55.7424 168.722 58.3989 170.268 60.4997C171.814 62.6109 173.907 63.6608 176.556 63.6608C178.886 63.6608 181.545 62.59 184.524 60.4483L185.71 61.7455C182.762 64.9171 179.051 66.5034 174.577 66.5034C172.433 66.5034 170.227 66.0913 167.959 65.2778C165.701 64.4539 163.722 62.9504 162.032 60.7675C160.331 58.5739 159.403 55.6083 159.238 51.8705V49.7593C159.352 47.6687 159.898 45.4652 160.846 43.1688C161.805 40.862 163.269 38.8953 165.227 37.258C167.196 35.6206 169.598 34.8072 172.463 34.8072C175.36 34.8072 178.453 35.8368 181.751 37.9069C182.71 38.5967 183.473 38.9469 184.03 38.9469C184.566 38.9469 185.019 38.7821 185.39 38.4629ZM200.915 40.4914C200.667 41.3669 200.069 42.8702 199.121 44.9916C197.698 48.1426 196.771 50.4903 196.317 52.0249C195.874 53.5693 195.647 55.1039 195.647 56.6382C195.647 58.2033 195.998 59.748 196.709 61.2617C196.946 61.7356 197.224 62.1988 197.534 62.6518C197.843 63.0946 197.997 63.4345 197.997 63.6608C197.997 64.155 197.606 64.4026 196.822 64.4026C196.492 64.4026 195.956 64.4026 195.224 64.4026C194.482 64.4026 193.926 64.4026 193.544 64.4026C193.225 64.4026 192.73 64.4229 192.08 64.4644C191.421 64.5053 190.946 64.5262 190.637 64.5262C189.812 64.5262 189.277 64.4026 189.029 64.155C188.782 63.9081 188.658 63.3314 188.658 62.4254C188.658 60.0777 189.225 57.7604 190.349 55.485C191.472 53.2092 193.153 50.3362 195.399 46.8657C196.018 45.9182 196.626 44.971 197.234 44.0339C197.843 43.0965 198.368 42.1598 198.812 41.2332C199.255 40.3164 199.482 39.5134 199.482 38.823C199.482 38.3288 199.358 37.7113 199.121 36.9698V36.2286C199.275 35.8574 199.698 35.6723 200.358 35.6723H205.914C206.728 35.6723 207.254 35.775 207.481 35.9811C207.718 36.1871 207.831 36.6195 207.831 37.289C207.831 39.5854 208.718 43.4985 210.501 49.0178C211.677 52.7147 212.635 55.5053 213.367 57.3899C214.089 59.2741 214.687 60.7057 215.14 61.6941C215.594 62.6829 215.821 63.3007 215.821 63.5476C215.821 63.9081 215.697 64.1347 215.45 64.2479C215.202 64.3509 214.749 64.4026 214.078 64.4026C213.47 64.3611 212.625 64.3405 211.543 64.3405C210.48 64.3405 209.656 64.3611 209.069 64.4026C208.563 64.4026 208.161 64.2891 207.842 64.0729C207.533 63.8567 207.213 63.3936 206.873 62.6724C206.533 61.9414 206.162 60.9219 205.76 59.6038C205.357 58.2857 204.729 56.0512 203.873 52.9103C203.677 52.1276 203.523 51.5307 203.409 51.1392C203.296 50.7375 203.182 50.2947 203.08 49.8109C202.585 48.0912 202.152 46.3819 201.78 44.6828C201.585 43.6735 201.441 42.9526 201.337 42.5303C201.131 41.6551 200.987 40.9755 200.915 40.4914ZM245.323 38.4629L246.942 40.3782C244.715 41.8196 242.798 42.5408 241.179 42.5408C239.458 42.5408 237.675 41.4697 235.809 39.328C235.108 38.5348 234.541 37.9478 234.129 37.5772C233.706 37.2171 233.19 37.0316 232.593 37.0316C230.686 37.0316 229.438 38.2365 228.85 40.6461C228.253 43.0658 227.912 46.0833 227.819 49.6978C228.809 48.9357 230.16 48.153 231.881 47.3703C233.603 46.5775 234.994 46.186 236.046 46.186C236.84 46.186 237.582 46.3097 238.272 46.5465C239.066 46.8349 239.88 47.2363 240.705 47.7511C241.54 48.2662 242.148 48.5236 242.54 48.5236C243.385 48.5236 244.169 48.1939 244.901 47.545L246.138 49.2036C245.117 50.367 243.983 51.4172 242.726 52.3543C242.056 52.8485 241.53 53.1988 241.127 53.4045C240.736 53.6105 240.19 53.7133 239.509 53.7133C238.613 53.7133 237.643 53.3633 236.612 52.6633C235.561 51.9526 234.726 51.4584 234.098 51.1807C233.479 50.8919 232.788 50.7582 232.036 50.7582C230.624 50.7582 229.242 51.3557 227.881 52.5499C227.881 55.7424 228.655 58.3989 230.201 60.4997C231.747 62.6109 233.84 63.6608 236.489 63.6608C238.819 63.6608 241.478 62.59 244.457 60.4483L245.643 61.7455C242.695 64.9171 238.984 66.5034 234.51 66.5034C232.366 66.5034 230.16 66.0913 227.892 65.2778C225.634 64.4539 223.655 62.9504 221.965 60.7675C220.264 58.5739 219.336 55.6083 219.171 51.8705V49.7593C219.285 47.6687 219.831 45.4652 220.779 43.1688C221.738 40.862 223.201 38.8953 225.16 37.258C227.129 35.6206 229.531 34.8072 232.397 34.8072C235.293 34.8072 238.386 35.8368 241.684 37.9069C242.643 38.5967 243.406 38.9469 243.963 38.9469C244.499 38.9469 244.952 38.7821 245.323 38.4629ZM288.67 36.4753H272.465V33.8803H275.125C275.125 29.751 274.475 26.8885 273.187 25.2819C271.888 23.6861 270.311 22.8825 268.434 22.8825C267.167 22.8825 265.971 23.2845 264.857 24.077C263.745 24.8806 262.827 26.2706 262.105 28.2373C261.384 30.2043 261.023 32.851 261.023 36.1665C261.023 38.6071 261.198 40.9342 261.549 43.1485C261.899 45.3624 262.466 48.1014 263.239 51.3655C264.146 54.9597 264.6 57.9459 264.6 60.3247C264.6 60.5922 264.579 60.8912 264.528 61.2104C264.476 61.5394 264.404 61.8587 264.322 62.1779C264.239 62.4971 264.167 62.7447 264.116 62.9197C264.064 63.1152 264.023 63.2902 263.971 63.4243C263.93 63.5581 263.889 63.6817 263.858 63.7746C264.26 64.0317 264.755 64.155 265.352 64.155C266.847 64.155 268.362 63.4243 269.898 61.962C271.445 60.4997 272.713 58.5843 273.702 56.2261C274.692 53.868 275.187 51.448 275.187 48.956C275.187 48.2868 275.166 47.7926 275.125 47.4734H272.465V44.8781H288.67V47.4734H286.134C286.01 50.0474 285.32 52.4468 284.052 54.6814C282.784 56.9058 281.114 58.862 279.052 60.5304C276.991 62.2089 274.733 63.4963 272.3 64.4026C269.857 65.3086 267.476 65.7616 265.156 65.7616C263.404 65.7616 261.899 65.5146 260.641 65.0204V64.155C260.641 63.0842 260.57 62.1474 260.415 61.3546C260.27 60.5615 259.858 59.5315 259.188 58.2857C258.518 57.0291 257.456 55.4435 256.013 53.5284C254.312 51.3557 253.024 49.4401 252.157 47.7821C251.292 46.1347 250.746 44.6929 250.498 43.4776C250.261 42.2625 250.137 40.9136 250.137 39.4412C250.137 35.5693 250.993 32.1815 252.694 29.2771C254.405 26.3734 256.704 24.1493 259.6 22.6045C262.487 21.0601 265.641 20.2878 269.053 20.2878C274.836 20.2878 278.99 21.7188 281.516 24.5712C284.041 27.4344 285.578 30.5337 286.134 33.8803H288.67V36.4753Z" fill="#272727"/>
<path fill-rule="evenodd" clip-rule="evenodd" d="M63.2505 3.056C62.4793 2.45754 58.0483 2.59993 56.9942 6.77841C56.8391 7.39502 56.8621 7.94274 56.6519 8.5652C56.2046 9.89344 54.4073 11.8884 53.2026 10.3495C52.4299 9.36233 53.7654 7.31322 51.5057 5.61685C51.0581 5.28133 50.6323 5.22782 50.145 4.90614C48.7005 3.95216 48.6919 2.66143 49.6087 1.37993C49.8076 1.10223 50.0083 1.06594 49.9769 0.711044C49.0167 0.195922 45.1746 2.1946 46.5667 6.65632C46.7709 7.30984 47.1021 7.78313 47.3004 8.46402C47.5103 9.18519 47.3789 10.0281 47.1471 10.6611C46.8817 11.3825 46.5415 11.6827 45.9735 12.0311C45.4064 12.3793 44.3745 12.5945 44.2427 11.6907C44.0743 10.5334 45.0973 8.7328 43.8804 7.43592C42.0505 5.48461 39.9056 6.85653 37.9335 5.75001C37.396 5.44863 36.9148 4.92951 36.8446 4.3129C36.6389 2.49598 38.6243 1.68839 38.6237 1.11084C36.6962 1.46082 33.9855 3.1129 33.1324 4.84986C30.9497 9.29221 35.6233 12.5478 33.6327 16.0571C33.4286 16.4175 32.7941 17.178 32.312 16.5374C31.9164 16.0134 31.9549 14.6396 29.968 14.1746C28.0278 13.7207 27.4811 13.8305 26.701 11.5714C26.5714 11.1974 26.6191 10.9194 26.4978 10.5919C26.2155 10.6712 26.1989 10.8071 26.052 11.1079C25.6635 11.9038 25.4535 12.5469 25.4578 13.4519C25.4637 14.8186 25.5853 15.7286 26.1127 16.7696C26.7278 17.9853 28.5019 19.0386 28.272 20.5136C28.1922 21.0275 27.7305 21.4346 27.208 21.5001C26.3328 21.6093 26.0591 20.5283 24.5497 20.2383C22.4399 19.8336 20.0291 21.1757 19.0335 17.8949C18.697 16.7856 18.8962 15.3356 18.8872 14.2245C18.1702 14.5883 17.0139 17.035 16.823 17.6766C15.8767 20.8626 17.0921 23.6021 18.9177 26.0234C19.3302 26.5693 19.7375 27.021 20.1267 27.589C21.1657 29.1061 20.5688 30.9126 18.4864 30.4304C17.762 30.2621 17.2935 29.6572 16.8837 29.2473C15.3912 27.7548 14.9664 27.7828 12.7507 27.816C11.941 27.8277 11.0076 28.122 10.1481 27.9535C8.32185 27.5949 7.19694 25.4966 6.6117 23.8777C6.50241 23.5742 6.55813 23.5502 6.31831 23.4662C5.82851 23.9635 5.70475 26.8636 5.77864 27.8095C5.98921 30.4866 7.05933 32.8802 8.80149 34.6221C9.92333 35.7446 10.2937 35.7929 11.9426 36.4897C14.8558 37.7211 14.6733 40.0611 12.8181 40.254C10.5058 40.4939 10.1715 39.7481 7.49187 42.4015C7.14029 42.7499 6.53412 43.1242 6.01015 43.3831C5.19925 43.7842 4.87846 43.7805 3.82589 43.7257C4.03339 44.5841 5.69336 45.4775 6.45315 45.7023C7.91117 46.1331 9.22141 45.5876 10.6647 45.8591C12.0432 46.1187 14.3014 48.475 12.936 49.6618C12.5318 50.0124 11.8028 49.9887 11.2154 50.24C8.68882 51.3179 8.87969 53.9039 7.08703 55.1753C6.13698 55.8485 4.8643 56.1345 3.37642 56.0219C2.14222 55.9284 0.312925 54.8146 0.00845309 54.8435C-0.135624 55.5868 1.6047 57.9594 1.97998 58.3414C2.86199 59.2409 3.97428 60.1048 5.38735 60.4954C6.45223 60.7906 6.58399 60.8407 7.82774 60.8407C8.72792 60.8401 9.61578 60.8601 10.4291 60.655C12.1227 60.2272 13.3224 59.6177 15.2514 60.2493C17.3716 60.9441 16.6897 62.9981 15.3124 63.2496C10.7561 64.0825 12.0599 67.7606 11.1859 70.211C10.8029 71.2852 10.0326 71.888 9.09457 72.3346C8.72853 72.5086 8.29445 72.5289 8.11497 72.8165C8.35972 73.2193 9.80234 73.3725 10.2103 73.3716C12.4902 73.3639 14.2124 72.4683 15.5617 70.78C18.1434 67.549 22.717 69.52 19.1963 71.872C16.5626 73.6314 16.2304 76.4565 16.7313 79.4792C17.2276 82.4712 17.4886 84.4524 14.9534 86.3603C14.7096 86.5439 14.379 86.7328 14.1807 86.9176C14.4556 87.2134 15.0787 87.1439 15.4549 87.1424C15.9444 87.1409 16.4859 87.1655 16.9677 87.1409C20.5943 86.9573 22.2466 84.8716 23.3068 81.6861C24.0325 79.5063 25.2747 77.5879 28.0857 77.6002C28.9924 77.6039 30.0338 77.4984 30.4836 78.1178C31.095 78.9592 30.2515 79.6853 29.794 79.9196C28.562 80.5507 27.0821 81.489 27.8108 83.404C28.4866 85.1788 30.7253 86.4218 28.5426 89.6989C28.2738 90.103 28.1553 90.2134 27.8505 90.5164C27.7175 90.6489 27.6307 90.7479 27.4909 90.8707C27.2031 91.1228 27.1994 90.9921 27.1243 91.3304C29.4997 91.9406 32.1571 90.8177 33.029 89.4129C33.3895 88.8317 33.7454 87.9312 33.8359 87.2337C33.9667 86.2275 33.674 84.7384 35.3035 83.5206C37.2005 82.1019 39.5925 82.9605 38.1539 84.3801C37.815 84.7144 37.537 85.224 37.5838 85.915C37.7285 88.0358 40.4607 88.3295 39.4448 90.7522C39.3429 90.9949 39.2176 91.1714 39.2668 91.4199C39.3681 91.931 41.4289 90.4487 41.8147 89.8595C42.9996 88.0481 40.7901 86.583 43.2791 85.3744C43.6092 85.2142 44.5164 84.9321 44.9333 84.9038C47.1009 84.7575 46.3158 86.2496 46.1582 87.5963C45.7244 91.3138 48.6205 91.3052 49.3495 92.9963C50.0834 94.6995 48.6328 96.3091 47.6147 97.3237C47.4207 97.5168 47.2274 97.6613 47.0113 97.8299C46.7681 98.0193 46.5591 98.0639 46.5258 98.4483C47.3484 98.7174 49.8599 97.9781 50.5781 97.662C52.8757 96.6492 54.9559 95.3976 56.167 93.1664C56.8849 91.8437 56.9708 90.5939 56.7402 88.8686C56.5201 87.2184 56.9055 85.8068 57.8876 85.1231C58.5547 84.659 59.188 84.6381 59.5879 85.319C59.9626 85.9565 59.554 86.6214 59.8043 87.4656C60.2067 88.8243 61.2146 89.4012 62.1644 90.1203C63.8093 91.3652 62.5147 92.794 62.7013 94.0364C63.5814 94.205 65.9384 92.0128 65.911 89.162C65.8981 87.8227 65.1001 87.271 64.7455 86.2013C64.4265 85.2409 65.1454 83.8348 65.9002 83.4483C67.2003 82.7825 67.4226 84.6467 67.8828 85.438C68.8055 87.0252 72.0839 86.9459 72.7298 88.8591C73.0234 89.7285 72.658 90.5902 72.2821 91.3298C72.183 91.5248 72.0589 91.6063 72.0352 91.8022C71.9881 92.1906 71.9666 91.4654 72.0568 91.9858C72.1461 92.5034 74.4411 91.0558 75.3977 89.6851C76.5343 88.0555 76.9132 84.8279 75.6738 82.8953C74.7976 81.5286 73.2984 81.4345 73.2984 79.4838C73.2984 76.8332 74.6074 77.3375 75.7252 79.0355C77.0278 81.0126 78.5667 82.1683 81.3162 82.1652C82.733 82.1631 83.1055 81.941 83.9355 81.9143C86.7348 81.8242 87.2089 83.0869 88.6322 85.2698C88.7882 85.5088 88.7741 85.581 89.0222 85.6429C89.1912 85.2713 89.1638 83.8899 89.1648 83.3717C89.1669 82.5229 89.0887 81.8675 88.9 81.1052C88.5577 79.7173 88.0235 78.5391 87.3348 77.5971C84.8581 74.2071 82.7019 75.0935 81.4892 73.2799C80.642 72.0129 80.3027 69.9696 81.79 70.044C82.8943 70.0997 83.6621 72.6867 87.3783 71.181C88.0137 70.923 88.7839 70.7117 89.5693 71.0097C90.1681 71.236 90.6813 71.5894 91.156 71.9529C91.4728 72.1949 92.1239 73.0892 92.4742 73.0929C92.5706 71.7665 91.7194 70.2544 91.1089 69.6202C90.1887 68.6641 89.7371 68.1813 88.0996 67.6379C86.7647 67.1947 85.5988 66.7429 85.0903 65.6377C84.8184 65.0475 84.6448 64.3106 84.7858 63.5618C84.9194 62.8545 85.5166 62.4439 86.1915 62.8646C87.4715 63.6639 87.051 64.3153 89.6595 64.3276C91.135 64.334 92.3289 63.3631 93.1124 62.7736C95.4004 61.0538 97.3011 63.528 98.2112 65.387C98.3799 65.7324 98.39 66.1005 98.7148 66.1429C99.1945 65.1404 98.9574 62.0555 98.6222 61.0099C97.8864 58.715 96.1048 57.4529 93.8879 57.0879C92.344 56.8335 90.7081 56.9326 89.5453 55.7073C88.92 55.048 89.0693 54.1709 89.7349 53.6865C90.7225 52.9693 92.5515 53.3249 94.1305 52.3666C95.3881 51.6039 96.1159 50.5703 96.9785 49.4118C97.8205 48.2813 98.853 47.382 100.223 46.8632C100.938 46.5923 101.86 46.4831 102.747 46.588C103.562 46.6839 104.556 46.9746 105.357 46.9838C104.934 44.5343 99.7828 41.3759 95.8576 41.7689C94.2817 41.9264 93.037 42.2148 91.3232 42.1742C90.5141 42.1549 90.1234 41.8513 89.6992 41.4263C89.3599 41.0865 88.8138 40.3745 89.1568 39.6149C89.4932 38.8682 90.2167 39.2766 90.9857 38.9768C93.2645 38.0883 92.7064 36.0291 95.5386 36.113C97.2679 36.1644 98.3879 37.4631 99.0418 37.5969C98.9876 36.4556 97.9286 34.3951 97.343 33.7893C96.4502 32.8654 95.6498 31.9917 93.8793 31.6968C90.697 31.1669 88.1516 33.4141 87.1421 32.9552C86.3066 32.5751 86.4744 31.6959 87.0412 31.2358C87.2865 31.0368 87.6184 30.9197 87.9555 30.8083C88.9483 30.479 89.7072 29.8248 90.2478 28.885C92.2529 25.3969 89.3839 21.2089 93.8836 18.6207L95.3241 18.0152C95.422 17.9918 95.4894 17.9985 95.5925 17.9696L95.8801 17.8171C95.7184 17.5871 95.8924 17.7221 95.5325 17.5754C92.7411 16.4387 88.3363 17.0535 86.0184 18.7812C84.6143 19.8271 83.4066 21.1671 82.1736 22.404C80.7756 23.8076 79.0704 22.8816 79.6085 21.4331C79.9558 20.4979 80.9265 20.0264 81.4283 18.2224C82.1601 15.5887 80.1688 13.2837 82.3285 11.1303C82.4494 11.0095 82.5353 10.9409 82.6514 10.8204C82.8373 10.6266 82.846 10.6764 82.8558 10.3409C81.1657 10.1647 79.9459 11.0046 79.2643 11.8783C78.5073 12.8486 78.145 14.1162 77.4914 15.1889C76.8055 16.3142 75.8865 16.9677 74.0843 16.7029C73.3599 16.5968 72.7612 16.2093 73.0062 15.3147C73.1287 14.8657 73.8787 14.2435 74.2167 13.9766C76.3825 12.2685 75.8865 8.64331 74.2269 6.56591C73.8433 6.08584 73.428 5.69773 73.0641 5.18538C70.7099 1.87138 73.9402 0.91125 73.9005 0.07137C72.7054 -0.190035 70.7327 0.318013 69.8125 0.764555C65.2374 2.98435 67.9139 8.03962 65.8128 11.2937C65.2485 12.1667 63.9641 13.3421 62.7715 13.0088C61.392 12.6228 62.3713 10.5556 61.7679 9.17658C60.9366 7.2757 59.8065 6.15442 61.9086 4.14591C62.0994 3.96323 62.3448 3.7781 62.5747 3.62464C62.8817 3.41828 63.2179 3.39921 63.2505 3.056ZM52.3077 16.9769C69.7429 16.9769 83.877 31.0956 83.877 48.5125C83.877 65.9292 69.7429 80.0488 52.3077 80.0488C34.8728 80.0488 20.739 65.9292 20.739 48.5125C20.739 31.0956 34.8728 16.9769 52.3077 16.9769ZM72.9702 28.3951L66.4017 28.4025L64.2692 33.407H40.3212L38.1853 28.3929H31.6479C36.8886 23.0234 44.2079 19.6881 52.3077 19.6881C60.4093 19.6881 67.7292 23.0246 72.9702 28.3951ZM31.4882 28.5562L36.1765 39.662H68.4016L73.1278 28.5569C78.1037 33.7358 81.1629 40.7673 81.1629 48.5125C81.1629 64.3995 68.2966 77.2834 52.4059 77.3363L59.1634 61.5071L65.9978 45.4993H52.3298H38.6613L45.4954 61.5071L52.2532 77.3369C36.3425 77.3068 23.4531 64.414 23.4531 48.5125C23.4531 40.7669 26.5119 33.7351 31.4882 28.5562ZM52.3298 68L59.5 50H45L52.3298 68ZM52.3077 15.5472C70.5338 15.5472 85.3082 30.3061 85.3082 48.5125C85.3082 66.7193 70.5338 81.4785 52.3077 81.4785C34.0825 81.4785 19.3078 66.7193 19.3078 48.5125C19.3078 30.3061 34.0825 15.5472 52.3077 15.5472Z" fill="#272727"/>
<path d="M125.338 76.0923V75.7765C125.338 73.688 124.162 73.0898 121.995 73.0898C119.599 73.0898 118.151 73.4921 118.151 76.1904V78.3004C118.151 81.2811 119.773 81.4336 121.995 81.4336C124.543 81.4336 125.338 80.8133 125.338 78.5181V78.2789H123.094V78.5181C123.094 79.4752 122.659 79.5407 121.755 79.5407C120.448 79.5407 120.394 79.0293 120.394 77.8111V76.5382C120.394 75.3742 120.514 74.9824 121.755 74.9824C122.496 74.9824 123.094 75.1239 123.094 75.7765V76.0923H125.338ZM130.423 75.059H132.623V73.1658H126.046V75.059H128.245V81.3247H130.423V75.059ZM135.727 79.0619H137.654C139.93 79.0619 140.442 78.3441 140.442 76.049C140.442 73.9165 139.68 73.1658 137.654 73.1658H133.549V81.3247H135.727V79.0619ZM135.727 74.9501H137.219C138.068 74.9501 138.199 75.2328 138.199 76.0705C138.199 77.1259 138.047 77.2779 137.219 77.2779H135.727V74.9501ZM145.201 81.4336C147.412 81.4336 148.98 80.9114 148.98 78.3982V76.0923C148.98 73.5791 147.412 73.0898 145.201 73.0898C142.99 73.0898 141.422 73.5791 141.422 76.0923V78.3982C141.422 80.9114 142.99 81.4336 145.201 81.4336ZM145.201 79.5407C144.069 79.5407 143.666 79.3777 143.666 78.1593V76.3208C143.666 75.1024 144.069 74.9824 145.201 74.9824C146.334 74.9824 146.736 75.1128 146.736 76.3208V78.1593C146.736 79.3777 146.334 79.5407 145.201 79.5407ZM152.247 73.1658H150.178V81.3247H153.14L155.59 75.9508H155.666V81.3247H157.735V73.1658H154.871L152.323 78.5397H152.247V73.1658ZM163.038 75.059H165.238V73.1658H158.661V75.059H160.86V81.3247H163.038V75.059ZM168.342 74.9501H172.055V73.1658H166.164V81.3247H172.132V79.5407H168.342V77.9523H171.827V76.4401H168.342V74.9501ZM174.429 73.1658V78.5181C174.429 79.3233 174.223 79.6277 173.624 79.6277C173.33 79.6277 173.155 79.6167 172.959 79.5515V81.3136C173.297 81.3792 173.602 81.4118 174.07 81.4118C175.725 81.4118 176.498 80.2696 176.498 78.4856V75.059H178.861V81.3247H181.04V73.1658H174.429ZM184.633 73.1658H182.455V81.3247H186.658C188.302 81.3247 189.174 80.65 189.174 78.8226C189.174 76.9949 188.325 76.3208 186.658 76.3208H184.633V73.1658ZM184.633 78.0178H186.147C186.767 78.0178 186.996 78.1697 186.996 78.8444C186.996 79.4752 186.767 79.6277 186.147 79.6277H184.633V78.0178ZM192.55 73.1658H190.372V81.3247H192.55V78.1263H195.392V81.3247H197.57V73.1658H195.392V76.2338H192.55V73.1658ZM203.929 79.9214L204.354 81.3247H206.575L204.093 73.1658H200.782L198.332 81.3247H200.597L201 79.9214H203.929ZM203.483 78.3441H201.468L202.459 74.7976H202.481L203.483 78.3441ZM211.759 81.3247H213.937V73.1658H209.755C207.817 73.1658 207.12 73.9925 207.12 75.7442C207.12 77.0604 207.523 77.7456 208.579 78.1919L206.804 81.3247H209.298L210.736 78.4526H211.759V81.3247ZM211.759 76.6686H210.289C209.668 76.6686 209.298 76.4512 209.298 75.8201C209.298 75.1239 209.505 74.9501 210.126 74.9501H211.759V76.6686ZM221.451 73.1658H219.273V81.3247H221.451V78.1263H222.104L224.38 81.3247H227.081L223.966 77.1693L226.841 73.1658H224.206L222.104 76.2338H221.451V73.1658ZM231.35 81.4336C233.56 81.4336 235.129 80.9114 235.129 78.3982V76.0923C235.129 73.5791 233.56 73.0898 231.35 73.0898C229.139 73.0898 227.571 73.5791 227.571 76.0923V78.3982C227.571 80.9114 229.139 81.4336 231.35 81.4336ZM231.35 79.5407C230.217 79.5407 229.814 79.3777 229.814 78.1593V76.3208C229.814 75.1024 230.217 74.9824 231.35 74.9824C232.482 74.9824 232.885 75.1128 232.885 76.3208V78.1593C232.885 79.3777 232.482 79.5407 231.35 79.5407ZM236.326 73.1658V81.3247H238.504L238.286 75.0695L238.384 75.0479L240.443 81.3247H242.326L244.374 75.0479L244.472 75.0695L244.254 81.3247H246.432V73.1658H242.893L241.412 78.2897H241.335L239.778 73.1658H236.326ZM247.848 73.1658V81.3247H250.026V75.059H252.868V81.3247H255.046V73.1658H247.848ZM261.406 79.9214L261.83 81.3247H264.052L261.569 73.1658H258.258L255.808 81.3247H258.073L258.476 79.9214H261.406ZM260.959 78.3441H258.944L259.935 74.7976H259.957L260.959 78.3441ZM266.992 73.1658H264.814V81.3247H266.992V78.1263H269.834V81.3247H272.012V73.1658H269.834V76.2338H266.992V73.1658ZM275.497 73.1658H273.427V81.3247H276.39L278.84 75.9508H278.916V81.3247H280.985V73.1658H278.121L275.573 78.5397H275.497V73.1658ZM286.822 81.3247H289V73.1658H284.818C282.88 73.1658 282.183 73.9925 282.183 75.7442C282.183 77.0604 282.586 77.7456 283.642 78.1919L281.867 81.3247H284.361L285.798 78.4526H286.822V81.3247ZM286.822 76.6686H285.352C284.731 76.6686 284.361 76.4512 284.361 75.8201C284.361 75.1239 284.568 74.9501 285.189 74.9501H286.822V76.6686Z" fill="#272727"/>
</svg>
