<svg width="288" height="98" viewBox="0 0 288 98" fill="none" xmlns="http://www.w3.org/2000/svg">
<path fill-rule="evenodd" clip-rule="evenodd" d="M122.843 61.4895V42.0145C122.843 37.1278 123.295 33.1219 124.207 29.977C125.11 26.8422 126.771 24.4245 129.181 22.724C131.601 21.0333 135.006 20.1833 139.385 20.1833C141.396 20.1833 143.19 20.4495 144.79 20.9822C146.38 21.5048 147.733 22.2421 148.83 23.1747C149.938 24.1069 150.779 25.1723 151.343 26.3606C151.907 27.5593 152.194 28.7991 152.194 30.0896C152.194 33.1219 151.23 35.3453 149.313 36.7285C147.395 38.1218 145.149 38.8185 142.585 38.8185C140.821 38.8185 138.955 38.1625 136.996 36.8411L134.288 40.232C135.734 41.3897 137.129 42.322 138.483 43.0082C139.837 43.7049 141.232 44.2171 142.657 44.5346C144.082 44.8522 145.621 45.0159 147.282 45.0159H147.836C149.118 45.0159 150.071 45.1594 150.697 45.4568C151.323 45.7539 151.733 46.1944 151.918 46.7886C152.102 47.3929 152.194 48.233 152.194 49.3192V59.0923C152.194 59.3077 152.184 59.543 152.164 59.7786C152.143 60.0248 152.133 60.3424 152.133 60.7521C152.112 61.5923 152.03 62.2274 151.876 62.6576C151.733 63.0878 151.323 63.4362 150.667 63.6923C150 63.9481 148.912 64.0714 147.405 64.0714H117.736V61.4895H122.843ZM132.381 61.4895H139.939C140.965 61.4895 141.672 61.2334 142.062 60.7111C142.462 60.1885 142.657 59.0819 142.657 57.3814V50.4356C142.657 49.5138 142.513 48.8373 142.237 48.4175C141.959 47.9971 141.211 47.4648 140.001 46.7987C137.847 45.6208 136.288 44.7087 135.314 44.0534C134.35 43.4078 133.376 42.5166 132.381 41.3998V61.4895ZM132.381 39.2382L135.94 34.3824C137.201 35.1198 138.155 35.4888 138.78 35.4888C139.652 35.4888 140.513 35.0072 141.375 34.0339C142.226 33.061 142.657 31.4318 142.657 29.1264C142.657 26.9447 142.195 25.3359 141.272 24.3119C140.349 23.2772 139.191 22.7647 137.785 22.7647C135.612 22.7647 134.176 23.8817 133.468 26.125C132.75 28.3689 132.371 31.3501 132.309 35.0687C132.309 35.6115 132.319 36.2876 132.34 37.0972C132.371 37.9064 132.381 38.6233 132.381 39.2382ZM184.437 38.265L186.048 40.1705C183.832 41.6045 181.925 42.322 180.315 42.322C178.602 42.322 176.828 41.2563 174.972 39.1257C174.274 38.3366 173.71 37.7525 173.3 37.3839C172.88 37.0256 172.367 36.8411 171.772 36.8411C169.875 36.8411 168.634 38.0398 168.049 40.437C167.455 42.8442 167.116 45.8463 167.023 49.4422C168.008 48.684 169.352 47.9053 171.065 47.1267C172.777 46.3379 174.162 45.9485 175.208 45.9485C175.997 45.9485 176.736 46.0715 177.423 46.307C178.212 46.594 179.022 46.9933 179.843 47.5055C180.674 48.0179 181.279 48.274 181.668 48.274C182.509 48.274 183.289 47.946 184.017 47.3005L185.248 48.9505C184.232 50.1079 183.104 51.1528 181.853 52.085C181.187 52.5767 180.664 52.9252 180.263 53.1298C179.874 53.3348 179.33 53.437 178.653 53.437C177.761 53.437 176.797 53.0888 175.771 52.3925C174.726 51.6854 173.895 51.1938 173.269 50.9175C172.654 50.6302 171.967 50.4971 171.218 50.4971C169.813 50.4971 168.439 51.0916 167.085 52.2796C167.085 55.4557 167.854 58.0986 169.393 60.1885C170.931 62.2889 173.013 63.3334 175.649 63.3334C177.966 63.3334 180.612 62.2681 183.576 60.1374L184.755 61.428C181.822 64.5833 178.13 66.1614 173.68 66.1614C171.546 66.1614 169.352 65.7514 167.095 64.9422C164.85 64.1225 162.881 62.6267 161.199 60.455C159.507 58.2726 158.584 55.3223 158.419 51.6037V49.5033C158.533 47.4235 159.076 45.2313 160.019 42.9467C160.973 40.6518 162.429 38.6952 164.378 37.0663C166.337 35.4374 168.726 34.6281 171.577 34.6281C174.459 34.6281 177.536 35.6524 180.817 37.7118C181.771 38.3981 182.53 38.7466 183.084 38.7466C183.617 38.7466 184.068 38.5826 184.437 38.265ZM199.882 40.2831C199.636 41.1541 199.041 42.6496 198.098 44.7601C196.682 47.8949 195.759 50.2306 195.308 51.7573C194.867 53.2938 194.642 54.8205 194.642 56.347C194.642 57.904 194.99 59.4408 195.698 60.9467C195.934 61.4182 196.211 61.8789 196.518 62.3296C196.826 62.7702 196.98 63.1083 196.98 63.3334C196.98 63.8251 196.59 64.0714 195.811 64.0714C195.482 64.0714 194.949 64.0714 194.221 64.0714C193.483 64.0714 192.929 64.0714 192.549 64.0714C192.232 64.0714 191.739 64.0916 191.093 64.1329C190.437 64.1736 189.965 64.1944 189.657 64.1944C188.837 64.1944 188.304 64.0714 188.057 63.8251C187.811 63.5794 187.688 63.0058 187.688 62.1044C187.688 59.7688 188.252 57.4634 189.37 55.1996C190.488 52.9356 192.16 50.0773 194.395 46.6246C195.011 45.682 195.616 44.7396 196.22 43.8074C196.826 42.8748 197.349 41.9429 197.79 41.021C198.231 40.109 198.456 39.3101 198.456 38.6233C198.456 38.1316 198.333 37.5172 198.098 36.7796V36.0422C198.251 35.6729 198.672 35.4888 199.328 35.4888H204.856C205.666 35.4888 206.189 35.591 206.415 35.7959C206.65 36.0009 206.763 36.4311 206.763 37.0972C206.763 39.3817 207.645 43.2747 209.419 48.7657C210.589 52.4436 211.542 55.2198 212.27 57.0947C212.989 58.9693 213.583 60.3935 214.034 61.3769C214.486 62.3605 214.711 62.9752 214.711 63.2209C214.711 63.5794 214.588 63.8049 214.342 63.9175C214.096 64.02 213.645 64.0714 212.978 64.0714C212.373 64.0301 211.532 64.0096 210.455 64.0096C209.399 64.0096 208.579 64.0301 207.994 64.0714C207.491 64.0714 207.091 63.9585 206.774 63.7434C206.466 63.5283 206.148 63.0676 205.809 62.3501C205.471 61.6228 205.102 60.6086 204.702 59.2973C204.302 57.986 203.676 55.7629 202.825 52.6382C202.63 51.8595 202.476 51.2656 202.364 50.8762C202.251 50.4766 202.138 50.036 202.036 49.5547C201.544 47.8438 201.113 46.1433 200.743 44.4529C200.548 43.4488 200.405 42.7316 200.302 42.3116C200.098 41.4408 199.954 40.7647 199.882 40.2831ZM244.062 38.265L245.672 40.1705C243.457 41.6045 241.55 42.322 239.94 42.322C238.227 42.322 236.453 41.2563 234.597 39.1257C233.899 38.3366 233.335 37.7525 232.925 37.3839C232.504 37.0256 231.992 36.8411 231.397 36.8411C229.5 36.8411 228.259 38.0398 227.674 40.437C227.08 42.8442 226.741 45.8463 226.648 49.4422C227.633 48.684 228.977 47.9053 230.689 47.1267C232.402 46.3379 233.786 45.9485 234.832 45.9485C235.622 45.9485 236.36 46.0715 237.047 46.307C237.837 46.594 238.647 46.9933 239.468 47.5055C240.299 48.0179 240.903 48.274 241.294 48.274C242.134 48.274 242.914 47.946 243.642 47.3005L244.872 48.9505C243.857 50.1079 242.729 51.1528 241.478 52.085C240.812 52.5767 240.288 52.9252 239.888 53.1298C239.499 53.3348 238.956 53.437 238.278 53.437C237.386 53.437 236.422 53.0888 235.396 52.3925C234.351 51.6854 233.52 51.1938 232.894 50.9175C232.279 50.6302 231.592 50.4971 230.843 50.4971C229.438 50.4971 228.064 51.0916 226.71 52.2796C226.71 55.4557 227.48 58.0986 229.018 60.1885C230.556 62.2889 232.638 63.3334 235.274 63.3334C237.591 63.3334 240.237 62.2681 243.201 60.1374L244.38 61.428C241.447 64.5833 237.755 66.1614 233.305 66.1614C231.171 66.1614 228.977 65.7514 226.72 64.9422C224.474 64.1225 222.505 62.6267 220.824 60.455C219.131 58.2726 218.209 55.3223 218.044 51.6037V49.5033C218.158 47.4235 218.701 45.2313 219.644 42.9467C220.598 40.6518 222.054 38.6952 224.003 37.0663C225.961 35.4374 228.351 34.6281 231.202 34.6281C234.084 34.6281 237.161 35.6524 240.442 37.7118C241.396 38.3981 242.155 38.7466 242.709 38.7466C243.242 38.7466 243.693 38.5826 244.062 38.265ZM287.186 36.2876H271.065V33.706H273.711C273.711 29.5979 273.065 26.7501 271.783 25.1518C270.491 23.5642 268.921 22.7647 267.055 22.7647C265.794 22.7647 264.604 23.1646 263.496 23.953C262.389 24.7525 261.476 26.1354 260.758 28.092C260.04 30.0489 259.681 32.6819 259.681 35.9804C259.681 38.4085 259.855 40.7237 260.204 42.9265C260.553 45.1291 261.117 47.8539 261.886 51.1014C262.789 54.6771 263.24 57.6479 263.24 60.0144C263.24 60.2806 263.219 60.578 263.168 60.8956C263.117 61.223 263.045 61.5406 262.963 61.8581C262.881 62.1757 262.809 62.422 262.758 62.5961C262.707 62.7907 262.666 62.9648 262.614 63.0982C262.573 63.2313 262.532 63.3543 262.502 63.4466C262.901 63.7024 263.394 63.8251 263.988 63.8251C265.476 63.8251 266.983 63.0982 268.511 61.6433C270.05 60.1885 271.311 58.283 272.296 55.937C273.28 53.5909 273.772 51.1833 273.772 48.7042C273.772 48.0384 273.752 47.5468 273.711 47.2292H271.065V44.6472H287.186V47.2292H284.664C284.54 49.79 283.853 52.1771 282.592 54.4002C281.331 56.6131 279.669 58.5593 277.618 60.2191C275.567 61.889 273.321 63.1698 270.901 64.0714C268.47 64.9728 266.101 65.4234 263.794 65.4234C262.05 65.4234 260.553 65.1777 259.302 64.6861V63.8251C259.302 62.7598 259.23 61.8278 259.076 61.0391C258.933 60.25 258.523 59.2254 257.856 57.986C257.189 56.7358 256.133 55.1583 254.697 53.2531C253.005 51.0916 251.723 49.1858 250.861 47.5364C250 45.8974 249.457 44.463 249.21 43.2539C248.975 42.0451 248.852 40.7032 248.852 39.2382C248.852 35.3863 249.703 32.0159 251.395 29.1264C253.097 26.2376 255.384 24.0249 258.266 22.4881C261.138 20.9516 264.276 20.1833 267.67 20.1833C273.424 20.1833 277.556 21.607 280.069 24.4447C282.581 27.2931 284.11 30.3766 284.664 33.706H287.186V36.2876Z" fill="white"/>
<path fill-rule="evenodd" clip-rule="evenodd" d="M62.9255 3.0403C62.1583 2.44491 57.75 2.58657 56.7013 6.74358C56.547 7.35702 56.57 7.90193 56.3608 8.52118C55.9157 9.84261 54.1277 11.8273 52.9292 10.2963C52.1605 9.31422 53.4891 7.27564 51.2411 5.58799C50.7957 5.25419 50.3721 5.20096 49.8873 4.88093C48.4503 3.93185 48.4417 2.64776 49.3538 1.37284C49.5516 1.09657 49.7513 1.06046 49.7201 0.70739C48.7648 0.194915 44.9425 2.18332 46.3275 6.62212C46.5305 7.27227 46.8601 7.74314 47.0573 8.42052C47.2662 9.13799 47.1354 9.97661 46.9048 10.6063C46.6408 11.324 46.3023 11.6227 45.7373 11.9693C45.1731 12.3156 44.1465 12.5298 44.0154 11.6306C43.8479 10.4793 44.8656 8.68793 43.6549 7.39771C41.8344 5.45643 39.7006 6.82129 37.7386 5.72047C37.2038 5.42063 36.7251 4.90418 36.6553 4.29074C36.4507 2.48315 38.4258 1.67972 38.4252 1.10513C36.5076 1.45331 33.8109 3.0969 32.9622 4.82494C30.7907 9.24446 35.4403 12.4833 33.4599 15.9746C33.2568 16.3331 32.6256 17.0898 32.146 16.4525C31.7524 15.9311 31.7907 14.5644 29.814 14.1018C27.8838 13.6502 27.3399 13.7594 26.5638 11.5119C26.4348 11.1399 26.4823 10.8633 26.3616 10.5374C26.0808 10.6164 26.0642 10.7516 25.9181 11.0508C25.5316 11.8426 25.3227 12.4824 25.327 13.3828C25.3328 14.7425 25.4538 15.6478 25.9785 16.6835C26.5904 17.8929 28.3555 18.9408 28.1267 20.4082C28.0474 20.9194 27.588 21.3245 27.0682 21.3897C26.1975 21.4983 25.9252 20.4228 24.4235 20.1343C22.3246 19.7317 19.9262 21.0669 18.9357 17.8029C18.6009 16.6994 18.7991 15.2568 18.7902 14.1514C18.0769 14.5133 16.9265 16.9475 16.7366 17.5857C15.7951 20.7554 17.0043 23.4809 18.8205 25.8897C19.2309 26.4327 19.6361 26.8822 20.0232 27.4473C21.0569 28.9566 20.4631 30.7537 18.3914 30.274C17.6707 30.1066 17.2046 29.5048 16.7969 29.097C15.3121 27.6122 14.8894 27.64 12.6852 27.6731C11.8797 27.6847 10.951 27.9775 10.0959 27.8098C8.27909 27.4531 7.15996 25.3656 6.57773 23.755C6.469 23.453 6.52443 23.4292 6.28584 23.3456C5.79856 23.8404 5.67544 26.7255 5.74894 27.6666C5.95843 30.33 7.02305 32.7112 8.75627 34.4442C9.87234 35.5609 10.2408 35.6089 11.8812 36.3022C14.7795 37.5273 14.5979 39.8553 12.7523 40.0471C10.4518 40.2858 10.1192 39.5438 7.45337 42.1836C7.1036 42.5303 6.50054 42.9026 5.97926 43.1602C5.17253 43.5592 4.85339 43.5555 3.80623 43.5011C4.01266 44.355 5.6641 45.2438 6.41999 45.4674C7.87052 45.8961 9.17403 45.3533 10.6099 45.6235C11.9814 45.8817 14.2279 48.2259 12.8696 49.4066C12.4674 49.7554 11.7422 49.7318 11.1578 49.9818C8.64417 51.0542 8.83406 53.6269 7.05062 54.8918C6.10545 55.5615 4.8393 55.846 3.35907 55.7341C2.13121 55.6411 0.311317 54.5329 0.00840965 54.5616C-0.134928 55.3011 1.59645 57.6616 1.9698 58.0416C2.84728 58.9365 3.95386 59.7959 5.35967 60.1845C6.41907 60.4782 6.55016 60.5281 7.78752 60.5281C8.68307 60.5275 9.56637 60.5474 10.3755 60.3433C12.0604 59.9177 13.2539 59.3113 15.1731 59.9397C17.2824 60.6309 16.604 62.6744 15.2337 62.9246C10.7008 63.7532 11.9979 67.4124 11.1284 69.8502C10.7474 70.9189 9.98107 71.5186 9.04784 71.9629C8.68368 72.136 8.25183 72.1562 8.07327 72.4423C8.31676 72.8431 9.75197 72.9955 10.1578 72.9945C12.4261 72.9869 14.1394 72.0959 15.4818 70.4163C18.0502 67.2019 22.6003 69.1628 19.0977 71.5027C16.4775 73.2531 16.147 76.0636 16.6453 79.0708C17.139 82.0475 17.3988 84.0184 14.8766 85.9166C14.634 86.0992 14.3051 86.2871 14.1078 86.471C14.3813 86.7653 15.0012 86.6961 15.3755 86.6946C15.8625 86.6931 16.4012 86.7176 16.8805 86.6931C20.4885 86.5104 22.1323 84.4354 23.1871 81.2663C23.909 79.0977 25.1448 77.1892 27.9414 77.2014C28.8434 77.2051 29.8795 77.1002 30.327 77.7163C30.9353 78.5534 30.0961 79.2758 29.6409 79.5089C28.4152 80.1368 26.9429 81.0702 27.6679 82.9754C28.3402 84.7411 30.5674 85.9778 28.3959 89.238C28.1285 89.64 28.0106 89.7499 27.7074 90.0512C27.5751 90.1831 27.4887 90.2816 27.3497 90.4037C27.0633 90.6546 27.0596 90.5246 26.9849 90.8611C29.3481 91.4681 31.9919 90.3511 32.8593 88.9535C33.2179 88.3752 33.572 87.4794 33.662 86.7855C33.7922 85.7844 33.5009 84.303 35.122 83.0914C37.0093 81.68 39.3891 82.5342 37.9579 83.9465C37.6206 84.2791 37.3441 84.7861 37.3906 85.4735C37.5346 87.5834 40.2528 87.8756 39.2421 90.2859C39.1407 90.5273 39.016 90.7029 39.065 90.9501C39.1658 91.4586 41.216 89.9839 41.5998 89.3977C42.7786 87.5956 40.5805 86.1381 43.0567 84.9357C43.3851 84.7763 44.2877 84.4957 44.7024 84.4676C46.8588 84.3219 46.0779 85.8064 45.921 87.1462C45.4895 90.8446 48.3706 90.836 49.0959 92.5185C49.8261 94.2128 48.3829 95.8142 47.37 96.8236C47.1771 97.0157 46.9847 97.1595 46.7697 97.3272C46.5278 97.5156 46.3198 97.56 46.2867 97.9424C47.1051 98.2102 49.6037 97.4746 50.3182 97.1601C52.604 96.1526 54.6735 94.9074 55.8784 92.6877C56.5926 91.3717 56.6781 90.1283 56.4487 88.4119C56.2297 86.7702 56.6131 85.3658 57.5902 84.6857C58.2539 84.224 58.8839 84.2032 59.2817 84.8806C59.6545 85.5148 59.248 86.1763 59.497 87.0162C59.8973 88.3679 60.9001 88.9418 61.8449 89.6572C63.4814 90.8957 62.1935 92.3171 62.3791 93.5532C63.2547 93.7209 65.5996 91.54 65.5723 88.7038C65.5595 87.3714 64.7656 86.8225 64.4128 85.7584C64.0955 84.8029 64.8106 83.4041 65.5616 83.0195C66.855 82.3571 67.0761 84.2118 67.534 84.999C68.4519 86.578 71.7135 86.4991 72.356 88.4024C72.6482 89.2674 72.2847 90.1247 71.9107 90.8605C71.8121 91.0545 71.6887 91.1356 71.6651 91.3304C71.6182 91.7169 71.5968 90.9954 71.6865 91.5131C71.7753 92.028 74.0586 90.5879 75.0102 89.2242C76.141 87.603 76.518 84.392 75.285 82.4694C74.4133 81.1097 72.9217 81.0161 72.9217 79.0754C72.9217 76.4384 74.224 76.9401 75.3361 78.6293C76.632 80.5963 78.163 81.7461 80.8984 81.743C82.3079 81.7409 82.6785 81.52 83.5042 81.4934C86.2891 81.4037 86.7608 82.66 88.1767 84.8316C88.332 85.0694 88.3179 85.1413 88.5648 85.2028C88.7329 84.8332 88.7057 83.4588 88.7066 82.9433C88.7087 82.0989 88.6309 81.4469 88.4432 80.6884C88.1026 79.3076 87.5712 78.1355 86.8861 77.1984C84.4221 73.8258 82.2769 74.7076 81.0705 72.9034C80.2276 71.6428 79.8901 69.6101 81.3697 69.6841C82.4683 69.7395 83.2322 72.3132 86.9293 70.8152C87.5614 70.5585 88.3277 70.3483 89.109 70.6448C89.7047 70.87 90.2153 71.2215 90.6876 71.5832C91.0027 71.8239 91.6505 72.7137 91.999 72.7173C92.0949 71.3978 91.2481 69.8934 90.6407 69.2625C89.7253 68.3113 89.276 67.8309 87.6469 67.2903C86.3189 66.8494 85.159 66.4 84.653 65.3004C84.3826 64.7132 84.2098 63.9802 84.3501 63.2352C84.483 62.5315 85.0772 62.123 85.7486 62.5416C87.022 63.3368 86.6037 63.9848 89.1988 63.997C90.6667 64.0034 91.8545 63.0375 92.634 62.451C94.9102 60.7401 96.8012 63.2015 97.7065 65.051C97.8743 65.3946 97.8845 65.7608 98.2076 65.8031C98.6848 64.8056 98.4489 61.7366 98.1154 60.6964C97.3834 58.4133 95.611 57.1577 93.4055 56.7945C91.8695 56.5415 90.242 56.64 89.0851 55.4211C88.4631 54.7651 88.6116 53.8925 89.2738 53.4106C90.2563 52.6972 92.0759 53.0508 93.6468 52.0975C94.8979 51.3387 95.622 50.3104 96.4802 49.1579C97.3178 48.0332 98.3451 47.1386 99.7083 46.6224C100.42 46.3529 101.336 46.2442 102.219 46.3486C103.03 46.444 104.019 46.7332 104.816 46.7424C104.395 44.3054 99.27 41.1632 95.365 41.5543C93.7972 41.7109 92.5589 41.9979 90.8539 41.9575C90.049 41.9382 89.6603 41.6363 89.2383 41.2134C88.9008 40.8754 88.3574 40.1671 88.6986 39.4114C89.0334 38.6685 89.7531 39.0748 90.5182 38.7765C92.7853 37.8926 92.23 35.8439 95.0477 35.9274C96.7681 35.9785 97.8823 37.2706 98.5328 37.4037C98.4789 36.2683 97.4253 34.2184 96.8428 33.6156C95.9546 32.6965 95.1583 31.8273 93.3969 31.5339C90.2309 31.0068 87.6986 33.2424 86.6943 32.7859C85.8631 32.4077 86.03 31.533 86.5939 31.0753C86.838 30.8773 87.1682 30.7608 87.5035 30.65C88.4913 30.3223 89.2462 29.6716 89.7841 28.7366C91.7788 25.2664 88.9246 21.0999 93.4012 18.525L94.8343 17.9226C94.9316 17.8993 94.9987 17.9061 95.1013 17.8773L95.3874 17.7255C95.2266 17.4967 95.3996 17.631 95.0416 17.4851C92.2646 16.3543 87.8824 16.9659 85.5764 18.6847C84.1795 19.7253 82.978 21.0583 81.7514 22.2889C80.3605 23.6852 78.6641 22.764 79.1995 21.323C79.5449 20.3926 80.5106 19.9235 81.0099 18.1288C81.7379 15.5086 79.7569 13.2155 81.9054 11.0732C82.0258 10.9529 82.1112 10.8847 82.2267 10.7648C82.4117 10.572 82.4203 10.6216 82.4301 10.2878C80.7486 10.1125 79.5351 10.948 78.857 11.8172C78.1039 12.7825 77.7434 14.0437 77.0932 15.1108C76.4108 16.2303 75.4966 16.8805 73.7036 16.6171C72.983 16.5115 72.3873 16.126 72.6311 15.236C72.753 14.7893 73.4991 14.1703 73.8353 13.9048C75.99 12.2055 75.4966 8.5989 73.8454 6.53217C73.4638 6.05457 73.0507 5.66846 72.6886 5.15873C70.3465 1.86176 73.5603 0.906567 73.5208 0.0710032C72.3318 -0.189059 70.3692 0.316379 69.4538 0.760626C64.9022 2.96901 67.5649 7.99831 65.4746 11.2356C64.9132 12.1042 63.6354 13.2736 62.4489 12.9419C61.0765 12.558 62.0508 10.5013 61.4505 9.12942C60.6235 7.23831 59.4992 6.1228 61.5904 4.12461C61.7803 3.94287 62.0244 3.75868 62.2532 3.60601C62.5586 3.40071 62.893 3.38175 62.9255 3.0403ZM52.0389 16.8897C69.3845 16.8897 83.446 30.9358 83.446 48.2633C83.446 65.5904 69.3845 79.6374 52.0389 79.6374C34.6936 79.6374 20.6324 65.5904 20.6324 48.2633C20.6324 30.9358 34.6936 16.8897 52.0389 16.8897ZM72.5952 28.2492L66.0605 28.2565L63.939 33.2353H40.114L37.9891 28.247H31.4853C36.6991 22.9051 43.9808 19.587 52.0389 19.587C60.0989 19.587 67.3812 22.9063 72.5952 28.2492ZM31.3264 28.4095L35.9906 39.4582H68.0501L72.752 28.4101C77.7024 33.5624 80.7459 40.5578 80.7459 48.2633C80.7459 64.0686 67.9456 76.8863 52.1366 76.9389L58.8594 61.1911L65.6587 45.2655H52.061H38.4626L45.2616 61.1911L51.9847 76.9395C36.1557 76.9095 23.3326 64.083 23.3326 48.2633C23.3326 40.5575 26.3757 33.5618 31.3264 28.4095ZM52.061 67.6506L59.1943 49.7431H44.7688L52.061 67.6506ZM52.0389 15.4673C70.1714 15.4673 84.8699 30.1504 84.8699 48.2633C84.8699 66.3764 70.1714 81.0598 52.0389 81.0598C33.9074 81.0598 19.2086 66.3764 19.2086 48.2633C19.2086 30.1504 33.9074 15.4673 52.0389 15.4673Z" fill="white"/>
<path d="M124.693 75.7014V75.3872C124.693 73.3094 123.523 72.7144 121.368 72.7144C118.984 72.7144 117.543 73.1145 117.543 75.799V77.8982C117.543 80.8635 119.158 81.0152 121.368 81.0152C123.903 81.0152 124.693 80.3981 124.693 78.1148V77.8767H122.462V78.1148C122.462 79.0669 122.029 79.1321 121.129 79.1321C119.829 79.1321 119.775 78.6233 119.775 77.4114V76.145C119.775 74.987 119.894 74.5972 121.129 74.5972C121.866 74.5972 122.462 74.7379 122.462 75.3872V75.7014H124.693ZM129.753 74.6734H131.941V72.7899H125.398V74.6734H127.586V80.9069H129.753V74.6734ZM135.029 78.6557H136.947C139.211 78.6557 139.72 77.9416 139.72 75.6583C139.72 73.5368 138.962 72.7899 136.947 72.7899H132.862V80.9069H135.029V78.6557ZM135.029 74.5651H136.514C137.359 74.5651 137.488 74.8463 137.488 75.6797C137.488 76.7297 137.337 76.8809 136.514 76.8809H135.029V74.5651ZM144.455 81.0152C146.654 81.0152 148.214 80.4957 148.214 77.9954V75.7014C148.214 73.2011 146.654 72.7144 144.455 72.7144C142.255 72.7144 140.695 73.2011 140.695 75.7014V77.9954C140.695 80.4957 142.255 81.0152 144.455 81.0152ZM144.455 79.1321C143.328 79.1321 142.927 78.9699 142.927 77.7577V75.9287C142.927 74.7165 143.328 74.5972 144.455 74.5972C145.582 74.5972 145.982 74.7269 145.982 75.9287V77.7577C145.982 78.9699 145.582 79.1321 144.455 79.1321ZM151.464 72.7899H149.406V80.9069H152.353L154.79 75.5607H154.866V80.9069H156.924V72.7899H154.075L151.54 78.1362H151.464V72.7899ZM162.2 74.6734H164.389V72.7899H157.845V74.6734H160.033V80.9069H162.2V74.6734ZM167.477 74.5651H171.171V72.7899H165.31V80.9069H171.247V79.1321H167.477V77.5518H170.944V76.0474H167.477V74.5651ZM173.533 72.7899V78.1148C173.533 78.9158 173.327 79.2187 172.731 79.2187C172.439 79.2187 172.265 79.2076 172.07 79.1428V80.8959C172.406 80.9611 172.709 80.9935 173.175 80.9935C174.822 80.9935 175.591 79.8572 175.591 78.0823V74.6734H177.942V80.9069H180.109V72.7899H173.533ZM183.684 72.7899H181.517V80.9069H185.699C187.335 80.9069 188.202 80.2357 188.202 78.4177C188.202 76.5994 187.357 75.9287 185.699 75.9287H183.684V72.7899ZM183.684 77.617H185.19C185.807 77.617 186.035 77.7681 186.035 78.4394C186.035 79.0669 185.807 79.2187 185.19 79.2187H183.684V77.617ZM191.56 72.7899H189.393V80.9069H191.56V77.725H194.388V80.9069H196.554V72.7899H194.388V75.8421H191.56V72.7899ZM202.881 79.5108L203.304 80.9069H205.514L203.044 72.7899H199.75L197.312 80.9069H199.566L199.967 79.5108H202.881ZM202.437 77.9416H200.432L201.418 74.4133H201.44L202.437 77.9416ZM210.671 80.9069H212.837V72.7899H208.677C206.749 72.7899 206.055 73.6123 206.055 75.3551C206.055 76.6645 206.456 77.3462 207.507 77.7902L205.741 80.9069H208.222L209.652 78.0496H210.671V80.9069ZM210.671 76.2748H209.208C208.59 76.2748 208.222 76.0584 208.222 75.4306C208.222 74.7379 208.428 74.5651 209.046 74.5651H210.671V76.2748ZM220.313 72.7899H218.146V80.9069H220.313V77.725H220.962L223.227 80.9069H225.914L222.815 76.7729L225.675 72.7899H223.053L220.962 75.8421H220.313V72.7899ZM230.161 81.0152C232.36 81.0152 233.92 80.4957 233.92 77.9954V75.7014C233.92 73.2011 232.36 72.7144 230.161 72.7144C227.961 72.7144 226.401 73.2011 226.401 75.7014V77.9954C226.401 80.4957 227.961 81.0152 230.161 81.0152ZM230.161 79.1321C229.034 79.1321 228.633 78.9699 228.633 77.7577V75.9287C228.633 74.7165 229.034 74.5972 230.161 74.5972C231.287 74.5972 231.688 74.7269 231.688 75.9287V77.7577C231.688 78.9699 231.287 79.1321 230.161 79.1321ZM235.112 72.7899V80.9069H237.278L237.062 74.6838L237.159 74.6624L239.207 80.9069H241.081L243.118 74.6624L243.215 74.6838L242.998 80.9069H245.165V72.7899H241.644L240.171 77.8874H240.095L238.546 72.7899H235.112ZM246.574 72.7899V80.9069H248.741V74.6734H251.568V80.9069H253.735V72.7899H246.574ZM260.062 79.5108L260.484 80.9069H262.694L260.224 72.7899H256.931L254.493 80.9069H256.747L257.148 79.5108H260.062ZM259.618 77.9416H257.613L258.599 74.4133H258.621L259.618 77.9416ZM265.62 72.7899H263.453V80.9069H265.62V77.725H268.447V80.9069H270.614V72.7899H268.447V75.8421H265.62V72.7899ZM274.081 72.7899H272.022V80.9069H274.969L277.407 75.5607H277.482V80.9069H279.541V72.7899H276.692L274.156 78.1362H274.081V72.7899ZM285.348 80.9069H287.514V72.7899H283.354C281.426 72.7899 280.733 73.6123 280.733 75.3551C280.733 76.6645 281.134 77.3462 282.184 77.7902L280.418 80.9069H282.899L284.33 78.0496H285.348V80.9069ZM285.348 76.2748H283.885C283.268 76.2748 282.899 76.0584 282.899 75.4306C282.899 74.7379 283.105 74.5651 283.723 74.5651H285.348V76.2748Z" fill="white"/>
</svg>
