<svg width="90" height="76" viewBox="0 0 90 76" fill="none" xmlns="http://www.w3.org/2000/svg">
<path d="M74.7953 0.0368652C67.9185 0.0368652 62.485 5.57892 62.485 12.4852C62.485 19.3914 68.0034 24.8482 74.7953 24.8482C81.5871 24.8482 87.1904 19.3062 87.1904 12.3999C87.1904 5.49365 81.672 0.0368652 74.7953 0.0368652ZM74.7953 22.1198C69.4467 22.1198 65.1169 17.7714 65.1169 12.3999C65.1169 7.02838 69.5316 2.76526 74.7953 2.76526C80.1438 2.76526 84.4736 7.11364 84.4736 12.4852C84.4736 17.8567 80.1438 22.1198 74.7953 22.1198Z" fill="#03BCFC"/>
<path d="M78.7006 14.3609C78.6157 14.1052 78.6157 13.9346 78.4459 13.6788C78.361 13.5083 78.2761 13.2525 78.1063 13.082C77.9365 12.9115 77.8516 12.741 77.6818 12.5704C77.512 12.3999 77.3422 12.2294 77.0875 12.1441C76.9177 11.9736 76.663 11.8883 76.4932 11.8031C76.2385 11.7178 76.0687 11.5473 75.814 11.462C75.5593 11.3768 75.3046 11.2915 75.1348 11.2062C75.0499 11.2062 74.8801 11.121 74.7952 11.0357C74.7103 10.9504 74.5405 10.9504 74.4556 10.8652C74.3707 10.7799 74.201 10.7799 74.1161 10.6947C74.0312 10.6094 73.9463 10.5241 73.8614 10.4389C73.7765 10.3536 73.6916 10.2683 73.6916 10.0978C73.6067 10.0126 73.6067 9.84204 73.6067 9.75678C73.6067 9.58625 73.6067 9.50099 73.6067 9.33046C73.6067 9.2452 73.6916 9.07468 73.6916 8.98941C73.7765 8.90415 73.7765 8.73363 73.8614 8.64837C73.9463 8.5631 74.0312 8.47784 74.1161 8.39258C74.201 8.30732 74.3708 8.22205 74.5405 8.22205C74.7103 8.13679 74.7952 8.13679 74.965 8.13679C75.0499 8.13679 75.1348 8.13679 75.2197 8.13679C75.3046 8.13679 75.3895 8.13679 75.4744 8.13679C75.6442 8.13679 75.7291 8.13679 75.8989 8.22205C76.0687 8.22205 76.2385 8.30732 76.3234 8.30732C76.4083 8.30732 76.5781 8.39258 76.663 8.39258C76.8328 8.39258 76.9177 8.47784 77.0026 8.47784L77.4271 8.64837L77.512 8.13679L77.6818 6.7726V6.43155L77.3422 6.34629C77.2573 6.34629 77.0875 6.26102 77.0026 6.26102C76.9177 6.26102 76.8328 6.17576 76.663 6.17576C76.5781 6.17576 76.4083 6.0905 76.2385 6.0905C76.0687 6.0905 75.9838 6.00524 75.814 6.00524H75.7291V4.81157V4.38525H75.3046H74.1161H73.6916V4.81157V6.0905H73.6067C73.352 6.17576 73.0973 6.26102 72.8426 6.43155C72.5879 6.51681 72.4181 6.68733 72.2483 6.85786C72.0785 7.02838 71.9087 7.19891 71.7389 7.45469C71.5691 7.62522 71.4842 7.88101 71.3993 8.13679C71.3144 8.39258 71.2295 8.64837 71.1446 8.90415C71.0597 9.15994 71.0597 9.50099 71.0597 9.75678C71.0597 10.0126 71.0597 10.1831 71.1446 10.4389C71.2295 10.6947 71.2295 10.8652 71.3993 11.121C71.4842 11.2915 71.654 11.5473 71.7389 11.7178C71.9087 11.8883 71.9936 12.0589 72.1634 12.2294C72.3332 12.3999 72.503 12.5704 72.7577 12.6557C72.9275 12.8262 73.1822 12.9115 73.352 12.9967C73.6067 13.082 73.8614 13.2525 74.0312 13.3378C74.2858 13.4231 74.5405 13.5083 74.7103 13.5936C74.7952 13.5936 74.965 13.6788 75.0499 13.7641C75.1348 13.8494 75.3046 13.8494 75.3895 13.9346C75.4744 14.0199 75.5593 14.1051 75.6442 14.1051C75.7291 14.1904 75.814 14.2757 75.8989 14.3609C75.9838 14.4462 75.9838 14.5315 76.0687 14.702C76.0687 14.7872 76.1536 14.9578 76.1536 15.1283C76.1536 15.2988 76.1536 15.3841 76.1536 15.5546C76.1536 15.6399 76.0687 15.8104 75.9838 15.8957C75.8989 15.9809 75.814 16.0662 75.7291 16.1514C75.6442 16.2367 75.5593 16.322 75.3895 16.4072C75.3046 16.4925 75.1348 16.4925 75.0499 16.5778C74.965 16.5778 74.7952 16.663 74.6254 16.663C74.5405 16.663 74.4556 16.663 74.2859 16.663C74.201 16.663 74.0312 16.663 73.9463 16.663C73.7765 16.663 73.6067 16.663 73.5218 16.663C73.352 16.663 73.1822 16.5778 73.0973 16.5778C72.9275 16.5778 72.7577 16.4925 72.5879 16.4072C72.4181 16.322 72.2483 16.322 72.0785 16.2367C71.9936 16.2367 71.9087 16.1514 71.8238 16.1514C71.7389 16.1514 71.654 16.0662 71.5691 16.0662L71.0597 15.8104L70.9748 16.4072L70.805 17.9419V18.1977L71.0597 18.283C71.3993 18.1977 71.5691 18.283 71.8238 18.3683C71.9936 18.4535 72.2483 18.5388 72.4181 18.5388C72.5879 18.624 72.8426 18.624 73.0973 18.7093C73.352 18.7946 73.5218 18.7946 73.7765 18.7946H73.9463V20.0735V20.4998H74.3707H75.5593H75.9838V20.0735V18.7093H76.0687C76.3234 18.624 76.5781 18.5388 76.8328 18.3683C77.0875 18.283 77.2573 18.1125 77.512 17.9419C77.6818 17.7714 77.8516 17.6009 78.0214 17.3451C78.1912 17.1746 78.2761 16.9188 78.4459 16.663C78.5308 16.4072 78.6157 16.1514 78.7006 15.8957C78.7855 15.6399 78.7855 15.3841 78.7855 15.043C78.7855 14.7872 78.7855 14.6167 78.7006 14.3609Z" fill="#03BCFC"/>
<path d="M68.8524 26.4683C68.4279 25.8714 67.494 25.7862 66.8997 26.2125L53.1462 37.2114L35.4025 29.7935C34.9781 29.623 34.4687 29.7083 34.1291 29.964L15.1119 43.6061C14.5176 44.0324 14.3478 44.885 14.7723 45.4818C15.027 45.9081 15.4515 46.0787 15.876 46.0787C16.1307 46.0787 16.3854 45.9934 16.6401 45.8229L35.063 32.6072L52.8915 40.025C53.316 40.1956 53.9103 40.1103 54.2499 39.8545L68.5977 28.4293C69.192 28.003 69.2769 27.0651 68.8524 26.4683Z" fill="#03BCFC"/>
<path d="M88.7184 73.1918H82.436V33.7154C82.436 32.948 81.8417 32.3512 81.0776 32.3512H68.5976C67.8335 32.3512 67.2392 32.948 67.2392 33.7154V73.1918H62.6548V47.3574C62.6548 46.59 62.0605 45.9932 61.2964 45.9932H48.7315C47.9674 45.9932 47.3731 46.59 47.3731 47.3574V73.1918H42.7886V45.3111C42.7886 44.5437 42.1943 43.9469 41.4302 43.9469H28.9502C28.1861 43.9469 27.5919 44.5437 27.5919 45.3111V73.1918H23.0074V53.3257C23.0074 52.5584 22.4131 51.9615 21.649 51.9615H9.08409C8.32001 51.9615 7.72572 52.5584 7.72572 53.3257V73.1918H1.35837C0.594286 73.1918 0 73.7887 0 74.556C0 75.3234 0.594286 75.9202 1.35837 75.9202H8.99919H21.4792H28.9502H41.4302H48.7315H61.2115H68.5127H80.9927H88.6335C89.3976 75.9202 89.9919 75.3234 89.9919 74.556C90.0768 73.7887 89.4825 73.1918 88.7184 73.1918ZM20.2057 73.1918H10.4425V54.6899H20.2057V73.1918ZM40.0719 73.1918H30.3086V46.6753H40.0719V73.1918ZM59.8531 73.1918H50.0898V48.7216H59.8531V73.1918ZM79.7193 73.1918H69.956V35.0796H79.7193V73.1918Z" fill="#03BCFC"/>
</svg>
