 <svg style="display: none;" xmlns="http://www.w3.org/2000/svg" xmlns:xlink="http://www.w3.org/1999/xlink">
    <symbol id="i-plus" viewBox="0 0 33 33" fill="none" xmlns="http://www.w3.org/2000/svg">
      <circle cx="16.5" cy="16.5" r="16.5" fill="#F9F025"/>
      <path d="M8 15.5205L15.3043 23L28 10" stroke="black" stroke-width="3" stroke-linejoin="round"/>
    </symbol>
    <symbol id="i-close" viewBox="0 0 23 23" xmlns="http://www.w3.org/2000/svg">
      <path fill-rule="evenodd" clip-rule="evenodd" d="M23 2.3L20.7 0L11.5 9.2L2.3 0L0 2.3L9.2 11.5L0 20.7L2.3 23L11.5 13.8L20.7 23L23 20.7L13.8 11.5L23 2.3Z"/>
    </symbol>
    <symbol id="i-arrow-top" viewBox="0 0 50 50" xmlns="http://www.w3.org/2000/svg">
    	<path  d="M42.359,25.479L27.122,1.25c-1.048-1.667-2.747-1.667-3.795,0L8.095,25.479
		c-1.048,1.667-0.316,2.801,1.635,2.532l5.43-0.885c1.95-0.269,3.531,1.11,3.531,3.079v16.683c0,1.969,1.596,3.566,3.565,3.566
		h5.935c1.97,0,3.566-1.596,3.566-3.566V30.206c0-1.969,1.582-3.348,3.531-3.079l5.436,0.885
		C42.674,28.28,43.407,27.146,42.359,25.479z"/>
    </symbol>
</svg>