<svg width="32" height="48" viewBox="0 0 32 48" fill="none" xmlns="http://www.w3.org/2000/svg">
<g clip-path="url(#clip0_1:193)">
<path fill-rule="evenodd" clip-rule="evenodd" d="M17.326 0H14.672C6.419 0.618 0 7.06802 0 14.817V33.071C0.002 41.3 7.17801 48 16.002 48C24.826 48 32.002 41.3 32.002 33.069V14.811C32.002 7.06797 25.582 0.617 17.326 0ZM29.002 32.868C29.002 39.553 23.169 44.987 16.002 44.987C8.83501 44.987 3.00201 39.553 3.00201 32.868V15.1C3.00201 8.41698 8.83401 2.98199 16.002 2.98199C23.17 2.98199 29.002 8.41698 29.002 15.1V32.865V32.868ZM16.002 13C15.7414 12.9975 15.483 13.0464 15.2413 13.144C14.9997 13.2415 14.7797 13.3858 14.5939 13.5685C14.4081 13.7513 14.2602 13.9688 14.1586 14.2088C14.0571 14.4488 14.0038 14.7064 14.002 14.967V20.033C14.0342 20.5406 14.2584 21.0168 14.6292 21.3648C15 21.7129 15.4894 21.9066 15.998 21.9066C16.5065 21.9066 16.996 21.7129 17.3668 21.3648C17.7376 21.0168 17.9619 20.5406 17.994 20.033V14.967C17.9901 14.4422 17.7781 13.9404 17.4047 13.5717C17.0312 13.2029 16.5268 12.9973 16.002 13Z" fill="white"/>
</g>
<defs>
<clipPath id="clip0_1:193">
<rect width="32" height="48" fill="white"/>
</clipPath>
</defs>
</svg>
